<mxfile host="app.diagrams.net" modified="2021-03-01T15:26:33.955Z" agent="5.0 (Windows NT 10.0; Win64; x64) AppleWebKit/537.36 (KHTML, like Gecko) Chrome/88.0.4324.190 Safari/537.36" etag="TzqAbHoaO3rCIQXH0ois" version="14.4.3" type="github">
  <diagram id="Q8E_UvhwCKDFMo8XbUV1" name="Page-1">
    <mxGraphModel dx="2076" dy="1096" grid="1" gridSize="10" guides="1" tooltips="1" connect="1" arrows="1" fold="1" page="1" pageScale="1" pageWidth="827" pageHeight="1169" math="0" shadow="0">
      <root>
        <mxCell id="0" />
        <mxCell id="1" parent="0" />
        <mxCell id="Ngz5Qmx8SepJuHA1LDhD-5" style="edgeStyle=orthogonalEdgeStyle;rounded=0;orthogonalLoop=1;jettySize=auto;html=1;entryX=0.5;entryY=0;entryDx=0;entryDy=0;" edge="1" parent="1" source="Ngz5Qmx8SepJuHA1LDhD-1" target="Ngz5Qmx8SepJuHA1LDhD-2">
          <mxGeometry relative="1" as="geometry" />
        </mxCell>
        <mxCell id="Ngz5Qmx8SepJuHA1LDhD-1" value="&lt;font style=&quot;font-size: 18px&quot;&gt;开始&lt;/font&gt;" style="rounded=0;whiteSpace=wrap;html=1;fillColor=#fff2cc;strokeColor=#d6b656;" vertex="1" parent="1">
          <mxGeometry x="320" y="80" width="120" height="40" as="geometry" />
        </mxCell>
        <mxCell id="Ngz5Qmx8SepJuHA1LDhD-6" style="edgeStyle=orthogonalEdgeStyle;rounded=0;orthogonalLoop=1;jettySize=auto;html=1;" edge="1" parent="1" source="Ngz5Qmx8SepJuHA1LDhD-2" target="Ngz5Qmx8SepJuHA1LDhD-4">
          <mxGeometry relative="1" as="geometry" />
        </mxCell>
        <mxCell id="Ngz5Qmx8SepJuHA1LDhD-2" value="&lt;font style=&quot;font-size: 18px&quot;&gt;提交任务&lt;/font&gt;" style="rounded=0;whiteSpace=wrap;html=1;" vertex="1" parent="1">
          <mxGeometry x="320" y="150" width="120" height="40" as="geometry" />
        </mxCell>
        <mxCell id="Ngz5Qmx8SepJuHA1LDhD-12" style="edgeStyle=orthogonalEdgeStyle;rounded=0;orthogonalLoop=1;jettySize=auto;html=1;" edge="1" parent="1" source="Ngz5Qmx8SepJuHA1LDhD-4" target="Ngz5Qmx8SepJuHA1LDhD-7">
          <mxGeometry relative="1" as="geometry" />
        </mxCell>
        <mxCell id="Ngz5Qmx8SepJuHA1LDhD-15" style="edgeStyle=orthogonalEdgeStyle;rounded=0;orthogonalLoop=1;jettySize=auto;html=1;exitX=0;exitY=0.5;exitDx=0;exitDy=0;" edge="1" parent="1" source="Ngz5Qmx8SepJuHA1LDhD-4" target="Ngz5Qmx8SepJuHA1LDhD-10">
          <mxGeometry relative="1" as="geometry" />
        </mxCell>
        <mxCell id="Ngz5Qmx8SepJuHA1LDhD-4" value="&lt;font style=&quot;font-size: 18px&quot;&gt;线程池是否还在运行&lt;/font&gt;" style="rhombus;whiteSpace=wrap;html=1;fillColor=#dae8fc;strokeColor=#6c8ebf;" vertex="1" parent="1">
          <mxGeometry x="270" y="240" width="220" height="70" as="geometry" />
        </mxCell>
        <mxCell id="Ngz5Qmx8SepJuHA1LDhD-13" style="edgeStyle=orthogonalEdgeStyle;rounded=0;orthogonalLoop=1;jettySize=auto;html=1;" edge="1" parent="1" source="Ngz5Qmx8SepJuHA1LDhD-7" target="Ngz5Qmx8SepJuHA1LDhD-8">
          <mxGeometry relative="1" as="geometry" />
        </mxCell>
        <mxCell id="Ngz5Qmx8SepJuHA1LDhD-26" style="edgeStyle=orthogonalEdgeStyle;rounded=0;orthogonalLoop=1;jettySize=auto;html=1;entryX=0;entryY=0.5;entryDx=0;entryDy=0;" edge="1" parent="1" source="Ngz5Qmx8SepJuHA1LDhD-7" target="Ngz5Qmx8SepJuHA1LDhD-25">
          <mxGeometry relative="1" as="geometry" />
        </mxCell>
        <mxCell id="Ngz5Qmx8SepJuHA1LDhD-7" value="&lt;font style=&quot;font-size: 18px&quot;&gt;线程数小于核心数&lt;/font&gt;" style="rhombus;whiteSpace=wrap;html=1;fillColor=#dae8fc;strokeColor=#6c8ebf;" vertex="1" parent="1">
          <mxGeometry x="270" y="370" width="220" height="70" as="geometry" />
        </mxCell>
        <mxCell id="Ngz5Qmx8SepJuHA1LDhD-14" style="edgeStyle=orthogonalEdgeStyle;rounded=0;orthogonalLoop=1;jettySize=auto;html=1;" edge="1" parent="1" source="Ngz5Qmx8SepJuHA1LDhD-8" target="Ngz5Qmx8SepJuHA1LDhD-9">
          <mxGeometry relative="1" as="geometry" />
        </mxCell>
        <mxCell id="Ngz5Qmx8SepJuHA1LDhD-28" style="edgeStyle=orthogonalEdgeStyle;rounded=0;orthogonalLoop=1;jettySize=auto;html=1;entryX=0;entryY=0.5;entryDx=0;entryDy=0;" edge="1" parent="1" source="Ngz5Qmx8SepJuHA1LDhD-8" target="Ngz5Qmx8SepJuHA1LDhD-27">
          <mxGeometry relative="1" as="geometry" />
        </mxCell>
        <mxCell id="Ngz5Qmx8SepJuHA1LDhD-8" value="&lt;font style=&quot;font-size: 18px&quot;&gt;阻塞队列已经满了&lt;/font&gt;" style="rhombus;whiteSpace=wrap;html=1;fillColor=#dae8fc;strokeColor=#6c8ebf;" vertex="1" parent="1">
          <mxGeometry x="270" y="500" width="220" height="70" as="geometry" />
        </mxCell>
        <mxCell id="Ngz5Qmx8SepJuHA1LDhD-11" style="edgeStyle=orthogonalEdgeStyle;rounded=0;orthogonalLoop=1;jettySize=auto;html=1;" edge="1" parent="1" source="Ngz5Qmx8SepJuHA1LDhD-9" target="Ngz5Qmx8SepJuHA1LDhD-10">
          <mxGeometry relative="1" as="geometry" />
        </mxCell>
        <mxCell id="Ngz5Qmx8SepJuHA1LDhD-30" style="edgeStyle=orthogonalEdgeStyle;rounded=0;orthogonalLoop=1;jettySize=auto;html=1;entryX=0;entryY=0.5;entryDx=0;entryDy=0;" edge="1" parent="1" source="Ngz5Qmx8SepJuHA1LDhD-9" target="Ngz5Qmx8SepJuHA1LDhD-29">
          <mxGeometry relative="1" as="geometry" />
        </mxCell>
        <mxCell id="Ngz5Qmx8SepJuHA1LDhD-9" value="&lt;font style=&quot;font-size: 18px&quot;&gt;线程数小于最大线程数&lt;/font&gt;" style="rhombus;whiteSpace=wrap;html=1;fillColor=#dae8fc;strokeColor=#6c8ebf;" vertex="1" parent="1">
          <mxGeometry x="270" y="630" width="220" height="70" as="geometry" />
        </mxCell>
        <mxCell id="Ngz5Qmx8SepJuHA1LDhD-36" style="edgeStyle=orthogonalEdgeStyle;rounded=0;orthogonalLoop=1;jettySize=auto;html=1;entryX=0;entryY=0.5;entryDx=0;entryDy=0;" edge="1" parent="1" source="Ngz5Qmx8SepJuHA1LDhD-10" target="Ngz5Qmx8SepJuHA1LDhD-35">
          <mxGeometry relative="1" as="geometry">
            <Array as="points">
              <mxPoint x="90" y="870" />
            </Array>
          </mxGeometry>
        </mxCell>
        <mxCell id="Ngz5Qmx8SepJuHA1LDhD-10" value="&lt;font style=&quot;font-size: 18px&quot;&gt;拒绝任务&lt;/font&gt;" style="rounded=0;whiteSpace=wrap;html=1;fillColor=#f8cecc;strokeColor=#b85450;" vertex="1" parent="1">
          <mxGeometry x="10" y="710" width="160" height="60" as="geometry" />
        </mxCell>
        <mxCell id="Ngz5Qmx8SepJuHA1LDhD-17" value="&lt;font style=&quot;font-size: 18px&quot;&gt;否&lt;/font&gt;" style="text;html=1;align=center;verticalAlign=middle;resizable=0;points=[];autosize=1;" vertex="1" parent="1">
          <mxGeometry x="200" y="250" width="30" height="20" as="geometry" />
        </mxCell>
        <mxCell id="Ngz5Qmx8SepJuHA1LDhD-18" value="&lt;font style=&quot;font-size: 18px&quot;&gt;否&lt;/font&gt;" style="text;html=1;align=center;verticalAlign=middle;resizable=0;points=[];autosize=1;" vertex="1" parent="1">
          <mxGeometry x="200" y="640" width="30" height="20" as="geometry" />
        </mxCell>
        <mxCell id="Ngz5Qmx8SepJuHA1LDhD-20" value="&lt;font style=&quot;font-size: 18px&quot;&gt;是&lt;/font&gt;" style="text;html=1;align=center;verticalAlign=middle;resizable=0;points=[];autosize=1;" vertex="1" parent="1">
          <mxGeometry x="399" y="470" width="30" height="20" as="geometry" />
        </mxCell>
        <mxCell id="Ngz5Qmx8SepJuHA1LDhD-21" value="&lt;font style=&quot;font-size: 18px&quot;&gt;是&lt;/font&gt;" style="text;html=1;align=center;verticalAlign=middle;resizable=0;points=[];autosize=1;" vertex="1" parent="1">
          <mxGeometry x="399" y="320" width="30" height="20" as="geometry" />
        </mxCell>
        <mxCell id="Ngz5Qmx8SepJuHA1LDhD-22" value="&lt;font style=&quot;font-size: 18px&quot;&gt;否&lt;/font&gt;" style="text;html=1;align=center;verticalAlign=middle;resizable=0;points=[];autosize=1;" vertex="1" parent="1">
          <mxGeometry x="500" y="500" width="30" height="20" as="geometry" />
        </mxCell>
        <mxCell id="Ngz5Qmx8SepJuHA1LDhD-23" value="&lt;font style=&quot;font-size: 18px&quot;&gt;否&lt;/font&gt;" style="text;html=1;align=center;verticalAlign=middle;resizable=0;points=[];autosize=1;" vertex="1" parent="1">
          <mxGeometry x="500" y="360" width="30" height="20" as="geometry" />
        </mxCell>
        <mxCell id="Ngz5Qmx8SepJuHA1LDhD-34" style="edgeStyle=orthogonalEdgeStyle;rounded=0;orthogonalLoop=1;jettySize=auto;html=1;entryX=1;entryY=0.5;entryDx=0;entryDy=0;" edge="1" parent="1" source="Ngz5Qmx8SepJuHA1LDhD-25" target="Ngz5Qmx8SepJuHA1LDhD-35">
          <mxGeometry relative="1" as="geometry">
            <mxPoint x="900" y="730" as="targetPoint" />
            <Array as="points">
              <mxPoint x="810" y="405" />
              <mxPoint x="810" y="870" />
            </Array>
          </mxGeometry>
        </mxCell>
        <mxCell id="Ngz5Qmx8SepJuHA1LDhD-25" value="&lt;font style=&quot;font-size: 18px&quot;&gt;添加工作线程并执行&lt;/font&gt;" style="rounded=0;whiteSpace=wrap;html=1;fillColor=#d5e8d4;strokeColor=#82b366;" vertex="1" parent="1">
          <mxGeometry x="570" y="385" width="210" height="40" as="geometry" />
        </mxCell>
        <mxCell id="Ngz5Qmx8SepJuHA1LDhD-37" style="edgeStyle=orthogonalEdgeStyle;rounded=0;orthogonalLoop=1;jettySize=auto;html=1;entryX=1;entryY=0.5;entryDx=0;entryDy=0;" edge="1" parent="1" source="Ngz5Qmx8SepJuHA1LDhD-27" target="Ngz5Qmx8SepJuHA1LDhD-35">
          <mxGeometry relative="1" as="geometry">
            <Array as="points">
              <mxPoint x="810" y="535" />
              <mxPoint x="810" y="870" />
            </Array>
          </mxGeometry>
        </mxCell>
        <mxCell id="Ngz5Qmx8SepJuHA1LDhD-27" value="&lt;font style=&quot;font-size: 18px&quot;&gt;添加任务到阻塞队列中，等待工作线程获取执行&lt;/font&gt;" style="rounded=0;whiteSpace=wrap;html=1;fillColor=#d5e8d4;strokeColor=#82b366;" vertex="1" parent="1">
          <mxGeometry x="570" y="515" width="210" height="40" as="geometry" />
        </mxCell>
        <mxCell id="Ngz5Qmx8SepJuHA1LDhD-38" style="edgeStyle=orthogonalEdgeStyle;rounded=0;orthogonalLoop=1;jettySize=auto;html=1;entryX=1;entryY=0.5;entryDx=0;entryDy=0;" edge="1" parent="1" source="Ngz5Qmx8SepJuHA1LDhD-29" target="Ngz5Qmx8SepJuHA1LDhD-35">
          <mxGeometry relative="1" as="geometry">
            <Array as="points">
              <mxPoint x="810" y="665" />
              <mxPoint x="810" y="870" />
            </Array>
          </mxGeometry>
        </mxCell>
        <mxCell id="Ngz5Qmx8SepJuHA1LDhD-29" value="&lt;font style=&quot;font-size: 18px&quot;&gt;添加工作线程并执行&lt;/font&gt;" style="rounded=0;whiteSpace=wrap;html=1;fillColor=#d5e8d4;strokeColor=#82b366;" vertex="1" parent="1">
          <mxGeometry x="570" y="645" width="210" height="40" as="geometry" />
        </mxCell>
        <mxCell id="Ngz5Qmx8SepJuHA1LDhD-31" value="&lt;font style=&quot;font-size: 18px&quot;&gt;否&lt;/font&gt;" style="text;html=1;align=center;verticalAlign=middle;resizable=0;points=[];autosize=1;" vertex="1" parent="1">
          <mxGeometry x="399" y="585" width="30" height="20" as="geometry" />
        </mxCell>
        <mxCell id="Ngz5Qmx8SepJuHA1LDhD-33" value="&lt;font style=&quot;font-size: 18px&quot;&gt;是&lt;/font&gt;" style="text;html=1;align=center;verticalAlign=middle;resizable=0;points=[];autosize=1;" vertex="1" parent="1">
          <mxGeometry x="500" y="630" width="30" height="20" as="geometry" />
        </mxCell>
        <mxCell id="Ngz5Qmx8SepJuHA1LDhD-35" value="&lt;font style=&quot;font-size: 18px&quot;&gt;结束&lt;/font&gt;" style="rounded=0;whiteSpace=wrap;html=1;fillColor=#fff2cc;strokeColor=#d6b656;" vertex="1" parent="1">
          <mxGeometry x="300" y="840" width="160" height="60" as="geometry" />
        </mxCell>
      </root>
    </mxGraphModel>
  </diagram>
</mxfile>
